<mxfile host="app.diagrams.net" modified="2022-05-31T12:12:32.169Z" agent="5.0 (Windows)" etag="gr8UEjZh2aglWl7LJ2eK" version="18.1.3" type="github">
  <diagram id="LOgnxP49ZgXyVvEcyjZ6" name="Page-1">
    <mxGraphModel dx="868" dy="450" grid="1" gridSize="10" guides="1" tooltips="1" connect="1" arrows="1" fold="1" page="1" pageScale="1" pageWidth="827" pageHeight="1169" math="0" shadow="0">
      <root>
        <mxCell id="0" />
        <mxCell id="1" parent="0" />
        <mxCell id="0MzcDAW_ihwBQpmL2h_L-3" value="" style="rounded=0;whiteSpace=wrap;html=1;" vertex="1" parent="1">
          <mxGeometry x="520" y="40" width="200" height="330" as="geometry" />
        </mxCell>
        <mxCell id="0MzcDAW_ihwBQpmL2h_L-4" value="" style="rounded=0;whiteSpace=wrap;html=1;" vertex="1" parent="1">
          <mxGeometry x="40" y="40" width="200" height="80" as="geometry" />
        </mxCell>
        <mxCell id="0MzcDAW_ihwBQpmL2h_L-5" value="&lt;font size=&quot;1&quot;&gt;&lt;b&gt;&lt;font style=&quot;font-size: 16px;&quot;&gt;FTPS&lt;/font&gt;&lt;/b&gt;&lt;/font&gt;" style="rounded=0;whiteSpace=wrap;html=1;" vertex="1" parent="1">
          <mxGeometry x="530" y="50" width="70" height="60" as="geometry" />
        </mxCell>
        <mxCell id="0MzcDAW_ihwBQpmL2h_L-6" value="&lt;font size=&quot;1&quot;&gt;&lt;b&gt;&lt;font style=&quot;font-size: 16px;&quot;&gt;FTPS&lt;/font&gt;&lt;/b&gt;&lt;/font&gt;" style="rounded=0;whiteSpace=wrap;html=1;" vertex="1" parent="1">
          <mxGeometry x="160" y="50" width="70" height="60" as="geometry" />
        </mxCell>
        <mxCell id="0MzcDAW_ihwBQpmL2h_L-8" value="" style="endArrow=classic;html=1;rounded=0;fontSize=16;exitX=1;exitY=0.5;exitDx=0;exitDy=0;entryX=0;entryY=0.5;entryDx=0;entryDy=0;" edge="1" parent="1" source="0MzcDAW_ihwBQpmL2h_L-6" target="0MzcDAW_ihwBQpmL2h_L-5">
          <mxGeometry width="50" height="50" relative="1" as="geometry">
            <mxPoint x="420" y="250" as="sourcePoint" />
            <mxPoint x="470" y="200" as="targetPoint" />
          </mxGeometry>
        </mxCell>
        <mxCell id="0MzcDAW_ihwBQpmL2h_L-9" value="&lt;font face=&quot;Garamond&quot;&gt;&lt;b&gt;PYTHON&lt;/b&gt;&lt;/font&gt;" style="whiteSpace=wrap;html=1;aspect=fixed;fontSize=16;" vertex="1" parent="1">
          <mxGeometry x="525" y="150" width="80" height="80" as="geometry" />
        </mxCell>
      </root>
    </mxGraphModel>
  </diagram>
</mxfile>
